<svg xmlns:dc="http://purl.org/dc/elements/1.1/" xmlns:cc="http://creativecommons.org/ns#"
     xmlns:rdf="http://www.w3.org/1999/02/22-rdf-syntax-ns#" xmlns:svg="http://www.w3.org/2000/svg"
     xmlns="http://www.w3.org/2000/svg" xmlns:sodipodi="http://sodipodi.sourceforge.net/DTD/sodipodi-0.dtd"
     xmlns:inkscape="http://www.inkscape.org/namespaces/inkscape" version="1.1" x="0px" y="0px" viewBox="0 0 100 125">
    <g transform="translate(0,-952.36218)">
        <path style="text-indent:0;text-transform:none;direction:ltr;block-progression:tb;baseline-shift:baseline;color:#000000;enable-background:accumulate;"
              d="m 28.014531,977.36581 c -0.7706,-10e-6 -1.5448,0.29025 -2.1327,0.87816 -1.1758,1.17578 -1.1758,3.05827 0,4.23402 l 19.8841,19.88421 -19.8841,19.8842 c -1.1758,1.1758 -1.1758,3.0582 0,4.234 1.1759,1.1758 3.0581,1.1758 4.2339,0 l 19.8843,-19.8842 19.8842,19.8842 c 1.1759,1.1759 3.0582,1.1758 4.2339,0 1.1758,-1.1759 1.1759,-3.0581 0,-4.234 l -19.8841,-19.8842 19.8841,-19.88421 c 1.1759,-1.17583 1.1758,-3.05815 0,-4.23402 -1.1757,-1.17578 -3.058,-1.17588 -4.2339,0 l -19.8842,19.88421 -19.8843,-19.88421 c -0.5879,-0.5879 -1.3308,-0.87815 -2.1012,-0.87816 z"
              fill="#FFF" fill-opacity="1" stroke="none" marker="none" visibility="visible" display="inline"
              overflow="visible"/>
    </g>
</svg>
